OpenSim_Sub07_CSStiffKnee_RCS.mot
version=1
nRows=66
nColumns=11
inDegrees=no
endheader
time	Top_Thigh	Med_Thigh	Bot_Thigh	Top_Shank	2nd_Top_Shank	2nd_Bot_Shank	Bot_Shank	BNOx	BNOy	BNOZ
50.50000000	2051.03619079	1894.35598282	1524.07555409	1364.34352504	1362.55003191	1205.07226891	1169.35879043	66.79305447	-54.24699800	129.82506015
50.51000000	2044.32865502	1889.30872227	1515.25595826	1361.59679973	1362.16034091	1206.17140470	1166.36075479	60.47804755	-55.42328458	135.71863794
50.52000000	2039.63556216	1884.53991959	1509.59936088	1359.88456954	1361.99521107	1207.08141643	1163.76421911	52.28044905	-56.62015572	143.48660509
50.53000000	2037.20909998	1880.13584831	1507.44517353	1359.39266626	1362.08403979	1207.77932054	1161.72216325	42.48000247	-57.81659910	152.87842600
50.54000000	2036.55170029	1875.98980929	1507.74583892	1359.88653221	1362.37298159	1208.28680705	1160.23352113	32.74711978	-58.97655685	162.30044041
50.55000000	2037.02717656	1871.95942573	1509.19737057	1361.05388615	1362.79280068	1208.63382544	1159.26874597	25.00932615	-60.06118945	169.91066498
50.56000000	2037.99934230	1867.90232082	1510.49578200	1362.58244683	1363.27426126	1208.85032520	1158.79829095	21.19414673	-61.03165736	173.86711637
50.57000000	2038.83201097	1863.67611773	1510.33708674	1364.15993303	1363.74812757	1208.96625582	1158.79260927	23.22910667	-61.84912106	172.32781126
50.58000000	2038.89920728	1859.14239741	1507.43855024	1365.47776139	1364.14604283	1209.01133271	1159.22175978	33.00502360	-62.47542227	163.48561060
50.59000000	2037.97191644	1854.31659829	1501.34360649	1366.37110374	1364.43382299	1209.00617099	1160.04047065	50.98570950	-62.89888719	146.88794754
50.60000000	2036.33678944	1849.41402517	1492.66891168	1366.86187499	1364.62167549	1208.95956426	1161.18355499	75.78124562	-63.14224626	123.84189238
50.61000000	2034.31494009	1844.66334020	1482.10284723	1366.98447043	1364.72277455	1208.87951602	1162.58449497	105.87782522	-63.23052920	95.77211495
50.62000000	2032.22748219	1840.29320558	1470.33379456	1366.77328531	1364.75029438	1208.77402981	1164.17677272	139.76164160	-63.18876576	64.10328507
50.63000000	2030.39552955	1836.53228349	1458.05013511	1366.26271491	1364.71740920	1208.65110916	1165.89387040	175.91888804	-63.04198565	30.26007256
50.64000000	2029.14019597	1833.60923611	1445.94025028	1365.48715448	1364.63729321	1208.51875758	1167.66927016	212.83575781	-62.81521862	-4.33285274
50.65000000	2028.78259525	1831.75272561	1434.69252152	1364.48099931	1364.52312062	1208.38497860	1169.43645416	248.99844421	-62.53349438	-38.25082103
50.66000000	2029.64384120	1831.19141418	1424.99533024	1363.27864466	1364.38806566	1208.25777574	1171.12890455	282.89314050	-62.22184268	-70.06916247
50.67000000	2032.04504762	1832.15396400	1417.53705786	1361.91448579	1364.24530252	1208.14515253	1172.68010348	313.00603998	-61.90529323	-98.36320724
50.68000000	2036.30732831	1834.86903725	1413.00608581	1360.42291798	1364.10800543	1208.05511250	1174.02353310	337.82333592	-61.60887578	-121.70828551
50.69000000	2042.75160787	1839.56515520	1412.09053154	1358.83834824	1363.98934661	1207.99565600	1175.09270095	355.83172880	-61.35761605	-138.68021232
50.70000000	2051.44772950	1846.28385331	1415.12821483	1357.21076695	1363.89986555	1207.97057894	1175.85479550	366.19095796	-61.17123137	-148.49819927
50.71000000	2061.71948215	1854.51106413	1421.41609355	1355.63646832	1363.84227894	1207.97118432	1176.37708360	370.06060617	-61.05366584	-152.29322334
50.72000000	2072.75272084	1863.62999778	1430.05868628	1354.22030746	1363.81785715	1207.98646537	1176.74533503	368.96999648	-61.00594736	-151.54971753
50.73000000	2083.73330060	1873.02386437	1440.16051154	1353.06713946	1363.82787052	1208.00541534	1177.04531958	364.44845194	-61.02910383	-147.75211482
50.74000000	2093.84707644	1882.07587404	1450.82608791	1352.28181941	1363.87358944	1208.01702747	1177.36280703	358.02529561	-61.12416312	-142.38484821
50.75000000	2102.27990339	1890.16923690	1461.15993393	1351.96920241	1363.95628426	1208.01029499	1177.78356716	351.22985052	-61.29215314	-136.93235068
50.76000000	2108.25800172	1896.71551277	1470.29848526	1352.22444425	1364.07652124	1207.97496285	1178.38890318	345.53023207	-61.53356028	-132.81623527
50.77000000	2111.61157561	1901.55045707	1477.85575200	1352.99757045	1364.22433118	1207.91202346	1179.19328480	341.47870761	-61.84076856	-130.51814246
50.78000000	2112.63577723	1904.83637178	1483.81338199	1354.12688500	1364.38163463	1207.83112765	1180.15973325	338.92252288	-62.19992477	-129.79612001
50.79000000	2111.63771884	1906.74395883	1488.16248001	1355.44781798	1364.53014353	1207.74214891	1181.24994629	337.69078801	-62.59701529	-130.38960235
50.80000000	2108.92451269	1907.44392012	1490.89415084	1356.79579950	1364.65156983	1207.65496077	1182.42562170	337.61261313	-63.01802646	-132.03802391
50.81000000	2104.80327103	1907.10695757	1491.99949924	1358.00625966	1364.72762546	1207.57943675	1183.64845725	338.51710838	-63.44894465	-134.48081912
50.82000000	2099.58110612	1905.90377308	1491.46962998	1358.91462854	1364.74002235	1207.52545036	1184.88015071	340.23338388	-63.87575620	-137.45742242
50.83000000	2093.56513020	1904.00506858	1489.29564785	1359.35633626	1364.67047245	1207.50287512	1186.08239985	342.59054978	-64.28444748	-140.70726823
50.84000000	2087.06245553	1901.58154597	1485.46865760	1359.16681291	1364.50068770	1207.52158455	1187.21690244	345.41771619	-64.66100484	-143.96979100
50.85000000	2080.38019436	1898.80390717	1479.97976401	1358.18148859	1364.21238002	1207.59145216	1188.24535626	348.54399326	-64.99141465	-146.98442515
50.86000000	2073.82545894	1895.84285408	1472.82007186	1356.23579340	1363.78726137	1207.72235148	1189.12945909	351.79849111	-65.26166325	-149.49060512
50.87000000	2067.70536153	1892.86908861	1463.98068591	1353.16515744	1363.20704368	1207.92415603	1189.83090868	355.01031988	-65.45773701	-151.22776534
50.88000000	2062.30128310	1890.04058859	1453.47667151	1348.82869573	1362.45719396	1208.20426572	1190.31481743	358.00732447	-65.56724294	-151.97358586
50.89000000	2057.62896475	1887.38397307	1441.57045375	1343.33003735	1361.56194511	1208.54454408	1190.58154874	360.60428820	-65.59451913	-151.90057979
50.90000000	2053.54743435	1884.84836652	1428.67038669	1336.91706156	1360.56839984	1208.91178952	1190.65226227	362.60828868	-65.55377411	-151.41419057
50.91000000	2049.91369424	1882.38189178	1415.18671050	1329.83951201	1359.52395643	1209.27260573	1190.54838645	363.82630397	-65.45934398	-150.92287220
50.92000000	2046.58474680	1879.93267172	1401.52966535	1322.34713236	1358.47601318	1209.59359642	1190.29134972	364.06531210	-65.32556484	-150.83507872
50.93000000	2043.41759438	1877.44882917	1388.10949143	1314.68966628	1357.47196837	1209.84136528	1189.90258051	363.13229112	-65.16677279	-151.55926413
50.94000000	2040.26923933	1874.87848701	1375.33642889	1307.11685742	1356.55922030	1209.98251600	1189.40350725	360.83421908	-64.99730393	-153.50388246
50.95000000	2036.99742403	1872.17007887	1363.61860792	1299.87721267	1355.78490664	1209.98385412	1188.81549811	356.97947572	-64.83142810	-157.07453988
50.96000000	2033.51714558	1869.29608501	1353.20090766	1293.12354870	1355.17600044	1209.82780113	1188.15525664	351.48489218	-64.67828962	-162.45650381
50.97000000	2029.84045185	1866.26974636	1344.05148547	1286.84648067	1354.72529433	1209.52324865	1187.43157965	344.45113218	-64.53834462	-169.46155220
50.98000000	2025.98879158	1863.10825213	1336.11169392	1281.02091199	1354.42227007	1209.08165233	1186.65249805	335.99666641	-64.41120765	-177.86528482
50.99000000	2021.98361347	1859.82879153	1329.32288561	1275.62174613	1354.25640938	1208.51446785	1185.82604276	326.23996561	-64.29649326	-187.44330145
51.00000000	2017.84636626	1856.44855379	1323.62641313	1270.62388652	1354.21719401	1207.83315086	1184.96024467	315.29950046	-64.19381601	-197.97120188
51.01000000	2013.59849867	1852.98472811	1318.96362909	1266.00223661	1354.29410571	1207.04915703	1184.06313471	303.29374170	-64.10279045	-209.22458587
51.02000000	2009.26145942	1849.45450370	1315.27588607	1261.73169984	1354.47662621	1206.17394201	1183.14274378	290.34116002	-64.02303113	-220.97905320
51.03000000	2004.85669723	1845.87506980	1312.50453667	1257.78717964	1354.75423726	1205.21896147	1182.20710280	276.56022615	-63.95415261	-233.01020365
51.04000000	2000.40566083	1842.26361560	1310.59093347	1254.14357946	1355.11642060	1204.19567106	1181.26424267	262.06941079	-63.89576944	-245.09363700
51.05000000	1995.92979894	1838.63733033	1309.47642909	1250.77580275	1355.55265796	1203.11552646	1180.32219430	246.98718466	-63.84749617	-257.00495303
51.06000000	1991.45056028	1835.01340320	1309.10237610	1247.65875295	1356.05243110	1201.98998331	1179.38898860	231.43201846	-63.80894737	-268.51975151
51.07000000	1986.98939357	1831.40902343	1309.41012710	1244.76733350	1356.60522175	1200.83049729	1178.47265649	215.52238291	-63.77973757	-279.41363222
51.08000000	1982.56774754	1827.84138022	1310.34103470	1242.07644783	1357.20051165	1199.64852404	1177.58122888	199.37674873	-63.75948133	-289.46219494
51.09000000	1978.20707092	1824.32766280	1311.83645147	1239.56099940	1357.82778254	1198.45551925	1176.72273667	183.11358662	-63.74779321	-298.44103944
51.10000000	1973.92881241	1820.88506038	1313.83773002	1237.19589165	1358.47651618	1197.26293855	1175.90521077	166.85136729	-63.74428777	-306.12576550
51.11000000	1969.75442076	1817.53076217	1316.28622293	1234.95602801	1359.13619429	1196.08223762	1175.13668210	150.70856146	-63.74857954	-312.29197290
51.12000000	1965.70534467	1814.28195740	1319.12328281	1232.81631194	1359.79629862	1194.92487212	1174.42518157	134.80363984	-63.76028309	-316.71526142
51.13000000	1961.80303288	1811.15583527	1322.29026225	1230.75164686	1360.44631091	1193.80229771	1173.77874008	119.25507314	-63.77901298	-319.17123083
51.14000000	1958.06893410	1808.16958499	1325.72851383	1228.73693624	1361.07571290	1192.72597004	1173.20538855	104.18133207	-63.80438374	-319.43548091
51.15000000	1954.52449706	1805.34039580	1329.37939017	1226.74708350	1361.67398634	1191.70734479	1172.71315788	89.70088735	-63.83600994	-317.28361144
